<svg version="1.1" id="Layer_1" xmlns="http://www.w3.org/2000/svg" xmlns:xlink="http://www.w3.org/1999/xlink" x="0px" y="0px"
	 width="100%" viewBox="0 0 512 512" enable-background="new 0 0 512 512" xml:space="preserve">

<path fill="#000000" opacity="1.000000" stroke="none" 
	d="
M250.251770,234.248383 
	C234.919006,249.581177 219.760590,264.589722 204.798553,279.791565 
	C200.107681,284.557617 190.308914,286.415466 184.768982,279.416351 
	C180.551361,274.087830 180.765030,265.776825 186.291916,260.227966 
	C202.167999,244.288712 218.091782,228.396942 234.020050,212.509796 
	C235.315582,211.217606 236.787949,210.102722 238.344574,208.762100 
	C220.727661,191.174744 203.480209,174.025681 186.318390,156.791367 
	C178.736679,149.177628 180.904907,137.843353 190.644485,133.828064 
	C196.223770,131.527893 200.923233,133.448776 204.925003,137.436707 
	C221.096359,153.552109 237.294739,169.641998 253.292496,185.928543 
	C256.104828,188.791641 257.553253,189.177231 260.589996,186.072845 
	C276.437195,169.872696 292.556458,153.938614 308.592163,137.923065 
	C314.805359,131.717651 322.673004,131.352203 328.280243,136.721115 
	C333.378754,141.602951 332.805389,152.257080 327.681915,157.124222 
	C311.618195,172.384201 296.187714,188.310760 280.512848,203.980042 
	C275.996735,208.494537 275.996246,208.497971 280.681610,213.183289 
	C296.235962,228.737503 311.793243,244.288818 327.346497,259.844116 
	C333.400360,265.898743 334.062897,274.327332 328.907440,279.580383 
	C322.810425,285.792816 315.377411,285.708496 308.586182,279.025452 
	C297.302704,267.921661 286.169220,256.665497 274.973175,245.472885 
	C270.259003,240.760178 265.365173,236.209824 260.899323,231.272415 
	C258.115784,228.194946 255.971298,227.195572 253.301590,231.146606 
	C252.568024,232.232224 251.445831,233.055252 250.251770,234.248383 
z"/>

</svg>